<svg width="16" height="16" viewBox="0 0 16 16" fill="none" xmlns="http://www.w3.org/2000/svg">
<path d="M8.00028 1.67118C9.9685 1.67118 10.2016 1.6787 10.9789 1.71417C11.6976 1.74694 12.0879 1.86702 12.3477 1.96797C12.6918 2.10169 12.9373 2.26143 13.1952 2.51936C13.4532 2.77732 13.6129 3.02287 13.7467 3.36695C13.8476 3.6267 13.9677 4.017 14.0005 4.7357C14.0359 5.51298 14.0435 5.74613 14.0435 7.71434C14.0435 9.68258 14.0359 9.91573 14.0005 10.693C13.9677 11.4117 13.8476 11.802 13.7467 12.0618C13.6129 12.4058 13.4532 12.6514 13.1953 12.9093C12.9373 13.1673 12.6918 13.327 12.3477 13.4607C12.0879 13.5617 11.6976 13.6818 10.9789 13.7145C10.2018 13.75 9.96864 13.7575 8.00028 13.7575C6.03189 13.7575 5.7988 13.75 5.0216 13.7145C4.3029 13.6818 3.9126 13.5617 3.65285 13.4607C3.30877 13.327 3.06322 13.1673 2.80528 12.9093C2.54735 12.6514 2.38759 12.4058 2.25387 12.0618C2.15292 11.802 2.03283 11.4117 2.00006 10.693C1.9646 9.91573 1.95708 9.68258 1.95708 7.71434C1.95708 5.74613 1.9646 5.51298 2.00006 4.7357C2.03283 4.017 2.15292 3.6267 2.25387 3.36695C2.38759 3.02287 2.54732 2.77732 2.80528 2.51939C3.06322 2.26143 3.30877 2.10169 3.65285 1.96797C3.9126 1.86702 4.3029 1.74694 5.0216 1.71417C5.79888 1.6787 6.03203 1.67118 8.00028 1.67118ZM8.00028 0.343018C5.99832 0.343018 5.7473 0.351503 4.96106 0.387377C4.17647 0.423162 3.64062 0.547783 3.17175 0.729988C2.68701 0.918368 2.27593 1.17042 1.86611 1.58021C1.45631 1.99004 1.20426 2.40112 1.01591 2.88585C0.833672 3.35472 0.709051 3.89057 0.673265 4.67516C0.637392 5.46139 0.628906 5.71242 0.628906 7.71434C0.628906 9.71629 0.637392 9.96731 0.673265 10.7535C0.709051 11.5381 0.833672 12.074 1.01591 12.5429C1.20426 13.0276 1.45631 13.4387 1.86611 13.8485C2.27593 14.2583 2.68701 14.5103 3.17175 14.6987C3.64062 14.8809 4.17647 15.0055 4.96106 15.0413C5.7473 15.0772 5.99832 15.0857 8.00028 15.0857C10.0022 15.0857 10.2532 15.0772 11.0395 15.0413C11.8241 15.0055 12.3599 14.8809 12.8288 14.6987C13.3135 14.5103 13.7246 14.2583 14.1344 13.8485C14.5442 13.4387 14.7963 13.0276 14.9847 12.5429C15.1669 12.074 15.2915 11.5381 15.3273 10.7535C15.3631 9.96731 15.3716 9.71629 15.3716 7.71434C15.3716 5.71242 15.3631 5.46139 15.3273 4.67516C15.2915 3.89057 15.1669 3.35472 14.9847 2.88585C14.7963 2.40112 14.5442 1.99004 14.1344 1.58021C13.7246 1.17042 13.3135 0.918368 12.8288 0.729988C12.3599 0.547783 11.8241 0.423162 11.0395 0.387377C10.2532 0.351503 10.0022 0.343018 8.00028 0.343018Z" fill="white"/>
<path d="M8.00381 3.93274C5.91322 3.93274 4.21851 5.62745 4.21851 7.718C4.21851 9.80858 5.91322 11.5033 8.00381 11.5033C10.0944 11.5033 11.7891 9.80858 11.7891 7.718C11.7891 5.62745 10.0944 3.93274 8.00381 3.93274ZM8.00381 10.1751C6.64676 10.1751 5.54668 9.07505 5.54668 7.718C5.54668 6.36099 6.64676 5.26091 8.00381 5.26091C9.36083 5.26091 10.4609 6.36099 10.4609 7.718C10.4609 9.07505 9.36083 10.1751 8.00381 10.1751Z" fill="white"/>
<path d="M12.823 3.7807C12.823 4.2692 12.4269 4.66524 11.9384 4.66524C11.4499 4.66524 11.0538 4.2692 11.0538 3.7807C11.0538 3.29216 11.4499 2.89612 11.9384 2.89612C12.4269 2.89612 12.823 3.29216 12.823 3.7807Z" fill="white"/>
</svg>
