<svg width="22" height="22" viewBox="0 0 22 22" fill="none" xmlns="http://www.w3.org/2000/svg">
<g clip-path="url(#clip0_23_1551)">
<path d="M13.75 17.4167C13.7501 17.8792 13.5754 18.3247 13.2609 18.6638C12.9464 19.003 12.5154 19.2107 12.0541 19.2454L11.9166 19.25H10.0833C9.62079 19.2502 9.1753 19.0755 8.83615 18.761C8.497 18.4465 8.28926 18.0154 8.25457 17.5542L8.24998 17.4167H13.75ZM11 1.83334C12.6637 1.83332 14.2624 2.4795 15.4589 3.63558C16.6553 4.79166 17.3559 6.36726 17.413 8.03001L17.4166 8.25001V11.7003L19.0868 15.0407C19.1597 15.1864 19.1962 15.3477 19.1931 15.5106C19.1901 15.6735 19.1476 15.8333 19.0693 15.9762C18.991 16.1191 18.8792 16.2409 18.7435 16.3312C18.6078 16.4215 18.4523 16.4775 18.2902 16.4945L18.1848 16.5H3.81515C3.65213 16.5001 3.49154 16.4606 3.34712 16.385C3.2027 16.3093 3.07877 16.1998 2.98595 16.0658C2.89313 15.9318 2.83418 15.7773 2.81415 15.6155C2.79413 15.4537 2.81363 15.2895 2.87098 15.1369L2.91315 15.0407L4.58332 11.7003V8.25001C4.58332 6.5482 5.25936 4.9161 6.46271 3.71274C7.66607 2.50938 9.29818 1.83334 11 1.83334Z" fill="#BD2322"/>
</g>
<defs>
<clipPath id="clip0_23_1551">
<rect width="22" height="22" fill="white"/>
</clipPath>
</defs>
</svg>
