<svg width="40" height="40" viewBox="0 0 40 40" fill="none" xmlns="http://www.w3.org/2000/svg">
<path d="M28.7917 30.2083L28.0833 29.5C27.8333 29.25 27.535 29.125 27.1883 29.125C26.8417 29.125 26.5428 29.25 26.2917 29.5C26.0417 29.75 25.9167 30.0417 25.9167 30.375C25.9167 30.7083 26.0417 31 26.2917 31.25L27.9167 32.875C28.1667 33.125 28.4583 33.25 28.7917 33.25C29.125 33.25 29.4167 33.125 29.6667 32.875L33.7083 28.9167C33.9583 28.6667 34.0833 28.3678 34.0833 28.02C34.0833 27.6722 33.9583 27.3739 33.7083 27.125C33.4583 26.875 33.1594 26.75 32.8117 26.75C32.4639 26.75 32.1656 26.875 31.9167 27.125L28.7917 30.2083ZM28.3333 15C28.8056 15 29.2017 14.84 29.5217 14.52C29.8417 14.2 30.0011 13.8044 30 13.3333C30 12.8611 29.84 12.465 29.52 12.145C29.2 11.825 28.8044 11.6656 28.3333 11.6667H11.6667C11.1944 11.6667 10.7983 11.8267 10.4783 12.1467C10.1583 12.4667 9.99889 12.8622 10 13.3333C10 13.8056 10.16 14.2017 10.48 14.5217C10.8 14.8417 11.1956 15.0011 11.6667 15H28.3333ZM30 38.3333C27.6944 38.3333 25.7294 37.5206 24.105 35.895C22.4806 34.2694 21.6678 32.3044 21.6667 30C21.6667 27.6944 22.4794 25.7289 24.105 24.1033C25.7306 22.4778 27.6956 21.6656 30 21.6667C32.3056 21.6667 34.2711 22.4794 35.8967 24.105C37.5222 25.7306 38.3344 27.6956 38.3333 30C38.3333 32.3056 37.5206 34.2711 35.895 35.8967C34.2694 37.5222 32.3044 38.3344 30 38.3333ZM8.33333 5H31.6667C32.5833 5 33.3683 5.32667 34.0217 5.98C34.675 6.63334 35.0011 7.41778 35 8.33334V19.4583C34.2222 19.0694 33.4094 18.7844 32.5617 18.6033C31.7139 18.4222 30.86 18.3322 30 18.3333H11.6667C11.1944 18.3333 10.7983 18.4933 10.4783 18.8133C10.1583 19.1333 9.99889 19.5289 10 20C10 20.4722 10.16 20.8683 10.48 21.1883C10.8 21.5083 11.1956 21.6678 11.6667 21.6667H21.8333C21.3611 22.1389 20.9239 22.6528 20.5217 23.2083C20.1194 23.7639 19.765 24.3611 19.4583 25H11.6667C11.1944 25 10.7983 25.16 10.4783 25.48C10.1583 25.8 9.99889 26.1956 10 26.6667C10 27.1389 10.16 27.535 10.48 27.855C10.8 28.175 11.1956 28.3344 11.6667 28.3333H18.4583C18.4028 28.6111 18.3678 28.8822 18.3533 29.1467C18.3389 29.4111 18.3322 29.6956 18.3333 30C18.3333 31.1667 18.4933 32.285 18.8133 33.355C19.1333 34.425 19.6122 35.4456 20.25 36.4167C20.1111 36.4444 19.965 36.4233 19.8117 36.3533C19.6583 36.2833 19.5267 36.1933 19.4167 36.0833L18.0833 34.75C17.9167 34.5833 17.7222 34.5 17.5 34.5C17.2778 34.5 17.0833 34.5833 16.9167 34.75L15.5833 36.0833C15.4167 36.25 15.2222 36.3333 15 36.3333C14.7778 36.3333 14.5833 36.25 14.4167 36.0833L13.0833 34.75C12.9167 34.5833 12.7222 34.5 12.5 34.5C12.2778 34.5 12.0833 34.5833 11.9167 34.75L10.5833 36.0833C10.4167 36.25 10.2222 36.3333 10 36.3333C9.77778 36.3333 9.58333 36.25 9.41667 36.0833L8.08333 34.75C7.91667 34.5833 7.72222 34.5 7.5 34.5C7.27778 34.5 7.08333 34.5833 6.91667 34.75L5.58333 36.0833L5 36.4583V8.33334C5 7.41667 5.32667 6.63167 5.98 5.97834C6.63333 5.325 7.41778 4.99889 8.33333 5Z" fill="#BD2322"/>
</svg>
